<mxfile host="app.diagrams.net" modified="2020-08-11T07:32:14.007Z" agent="5.0 (Macintosh; Intel Mac OS X 10_15_5) AppleWebKit/537.36 (KHTML, like Gecko) Chrome/84.0.4147.105 Safari/537.36" etag="cDlXhJQIhnMp7GgQ6xKw" version="13.6.2" type="github">
  <diagram id="jphbGvgdzRIWTqIg4ElQ" name="Page-1">
    <mxGraphModel dx="1426" dy="722" grid="1" gridSize="10" guides="1" tooltips="1" connect="1" arrows="1" fold="1" page="1" pageScale="1" pageWidth="827" pageHeight="1169" math="0" shadow="0">
      <root>
        <mxCell id="0" />
        <mxCell id="1" parent="0" />
        <mxCell id="BffaArvf5HqJedQc392--2" value="" style="shape=ext;double=1;rounded=1;whiteSpace=wrap;html=1;" vertex="1" parent="1">
          <mxGeometry x="154" y="1050" width="520" height="80" as="geometry" />
        </mxCell>
        <mxCell id="BffaArvf5HqJedQc392--1" value="" style="rounded=0;whiteSpace=wrap;html=1;" vertex="1" parent="1">
          <mxGeometry x="170" y="1060" width="106" height="40" as="geometry" />
        </mxCell>
        <mxCell id="BffaArvf5HqJedQc392--3" value="" style="shape=ext;double=1;rounded=1;whiteSpace=wrap;html=1;" vertex="1" parent="1">
          <mxGeometry x="154" y="860" width="520" height="80" as="geometry" />
        </mxCell>
        <mxCell id="BffaArvf5HqJedQc392--4" value="" style="shape=ext;double=1;rounded=1;whiteSpace=wrap;html=1;" vertex="1" parent="1">
          <mxGeometry x="160" y="710" width="520" height="80" as="geometry" />
        </mxCell>
        <mxCell id="BffaArvf5HqJedQc392--5" value="" style="shape=ext;double=1;rounded=1;whiteSpace=wrap;html=1;" vertex="1" parent="1">
          <mxGeometry x="154" y="570" width="520" height="80" as="geometry" />
        </mxCell>
      </root>
    </mxGraphModel>
  </diagram>
</mxfile>
